<?xml version="1.0" encoding="UTF-8"?>
<svg id="Layer_1" xmlns="http://www.w3.org/2000/svg" version="1.1" viewBox="0 0 200 200">
  <!-- Generator: Adobe Illustrator 29.5.1, SVG Export Plug-In . SVG Version: 2.1.0 Build 141)  -->
  <defs>
    <style>
      .st0 {
        fill: #0bc0ff;
      }

      .st1 {
        fill: #fff;
      }
    </style>
  </defs>
  <rect class="st0" width="200" height="200"/>
  <g id="Layer_2">
    <g id="Layer_1-2">
      <path class="st1" d="M100.9,171c-4.5-2.3-8.5-5.5-11.7-9.4-3.5-4.1-6.1-8.8-7.9-13.8-2-5.4-3-11.2-3-16.9,0-35.7,29.8-55.1,26.5-91.2,0-2-.4-4-1-5.9-.6-1.8-1.5-3.4-2.8-4.8,4.5,2.3,8.5,5.5,11.7,9.4,3.5,4.1,6.1,8.8,7.9,13.8,1.9,5.4,2.9,11.2,3,16.9,0,30.9-28.2,53.5-28.2,86.6,0,2.9.5,5.7,1.4,8.5,1.1,2.4,2.4,4.7,4,6.8"/>
      <path class="st1" d="M127.6,169c-3-1.5-5.7-3.6-7.9-6.2-2.3-2.8-4.2-5.9-5.4-9.4-1.3-3.7-2-7.5-2-11.4,0-24,22-37.6,18.5-68.4,4.2,3.8,7.8,10.6,9.8,15.6,1.3,3.7,2,7.5,2,11.4,0,20.6-18.8,35.8-18.8,58.1,0,1.9.3,3.9,1,5.7.6,1.7,1.6,3.3,2.8,4.7"/>
      <path class="st1" d="M72.6,128.3c-3-1.5-5.7-3.6-7.9-6.2-2.3-2.8-4.2-5.9-5.4-9.4-1.3-3.7-2-7.5-2-11.4,0-24,22-37.6,18.5-68.4,4.2,3.8,7.8,10.6,9.8,15.6,1.3,3.7,2,7.5,2,11.4,0,20.6-18.8,35.8-18.8,58.1,0,1.9.3,3.9,1,5.7.6,1.7,1.6,3.3,2.8,4.7"/>
      <path class="st1" d="M131.4,37.1c0,2.1-1.6,3.9-3.8,4s-3.9-1.6-4-3.8,1.6-3.9,3.8-4c0,0,0,0,0,0,2.1,0,3.8,1.6,3.9,3.7,0,0,0,0,0,0ZM124.6,37.1c0,1.6,1.2,3,2.8,3,0,0,0,0,.1,0,1.6,0,2.9-1.3,2.9-2.9,0,0,0,0,0-.1,0-1.6-1.3-2.9-2.9-2.9s-2.9,1.3-2.9,2.9h0ZM127,39.1h-.9v-3.8c.5,0,1-.1,1.4-.1.5,0,.9,0,1.3.3.2.2.4.5.4.8,0,.4-.4.8-.8.9h0c.4.2.7.5.7.9,0,.3.1.6.3.9h-.9c-.1-.3-.2-.6-.3-.9,0-.4-.3-.6-.8-.6h-.4v1.6ZM127,37h.4c.5,0,.9-.2.9-.6s-.3-.6-.8-.6c-.2,0-.3,0-.5,0v1.1Z"/>
    </g>
  </g>
</svg>